<?xml version="1.0" standalone="no"?>
<!DOCTYPE svg PUBLIC "-//W3C//DTD SVG 20010904//EN"
 "http://www.w3.org/TR/2001/REC-SVG-20010904/DTD/svg10.dtd">
<svg version="1.0" xmlns="http://www.w3.org/2000/svg"
 width="1406.000000pt" height="1406.000000pt" viewBox="0 0 1406.000000 1406.000000"
 preserveAspectRatio="xMidYMid meet">
<metadata>
Created by potrace 1.11, written by Peter Selinger 2001-2013
</metadata>
<g transform="translate(0.000000,1406.000000) scale(0.100000,-0.100000)"
fill="#000000" stroke="none">
<path d="M5500 12709 c-165 -34 -301 -94 -426 -187 -104 -78 -4773 -4745
-4858 -4857 -78 -102 -148 -239 -172 -335 -2 -8 -11 -44 -20 -80 -22 -87 -27
-311 -8 -410 18 -92 47 -185 86 -270 79 -170 0 -89 2507 -2596 1301 -1301
2389 -2385 2416 -2408 99 -84 231 -156 355 -195 203 -64 448 -64 649 0 220 70
296 127 675 505 174 174 316 318 316 322 0 3 -815 819 -1812 1814 -996 994
-1809 1810 -1807 1813 14 16 515 517 2276 2276 1427 1425 1999 1990 2052 2028
106 73 261 144 362 165 13 3 35 7 49 11 14 3 54 8 90 12 262 27 513 -36 735
-187 56 -38 129 -109 2563 -2540 970 -968 1767 -1760 1771 -1760 15 0 514 509
559 570 212 293 259 697 121 1032 -74 181 -108 222 -552 666 -1812 1816 -4393
4385 -4437 4419 -113 85 -284 161 -435 194 -66 14 -305 18 -374 7 -150 -26
-300 -84 -419 -162 -87 -57 -146 -113 -482 -449 l-255 -255 -308 309 c-365
365 -433 419 -608 490 -186 74 -422 97 -609 58z"/>
<path d="M8008 8695 c-4 -5 -66 -13 -141 -20 -107 -10 -337 -111 -457 -201
-32 -24 -103 -91 -158 -149 -91 -95 -106 -117 -166 -237 -74 -148 -104 -242
-114 -363 -14 -159 -5 -349 17 -409 7 -16 14 -45 17 -65 5 -37 8 -45 65 -166
40 -87 113 -203 148 -233 23 -21 34 -23 98 -20 78 4 108 21 137 80 31 61 29
80 -14 148 -197 314 -224 546 -99 846 34 83 84 153 172 243 100 103 217 171
369 215 98 29 262 33 350 10 89 -23 271 -98 321 -133 159 -109 292 -306 321
-476 3 -16 9 -48 13 -70 10 -51 10 -184 0 -255 -11 -80 -25 -125 -62 -207 -81
-174 -72 -230 47 -283 50 -22 77 -21 126 4 60 31 125 152 171 318 31 112 35
141 35 323 l1 170 -38 115 c-91 274 -194 424 -405 592 -121 96 -323 183 -497
214 -65 11 -248 18 -257 9z"/>
<path d="M8045 8022 c-44 -8 -167 -54 -209 -78 -95 -53 -191 -186 -216 -300
-7 -28 -10 -335 -10 -830 1 -705 -1 -787 -15 -812 -9 -15 -50 -49 -91 -76 -83
-54 -207 -170 -278 -259 -80 -100 -118 -167 -176 -307 -13 -30 -27 -59 -31
-65 -4 -5 -10 -35 -15 -65 -9 -65 -7 -53 -23 -117 -22 -88 -3 -296 46 -523 9
-41 18 -83 20 -93 2 -10 26 -77 53 -150 47 -121 160 -332 222 -411 64 -82 170
-205 204 -237 43 -41 260 -197 340 -246 114 -69 361 -173 413 -173 10 0 47 -9
82 -19 140 -43 644 -47 744 -6 17 6 55 17 85 24 155 35 370 131 525 234 116
76 150 105 260 213 125 124 158 163 240 289 124 188 153 253 229 515 57 198
66 309 66 875 0 450 -8 545 -56 639 -61 120 -182 213 -327 252 -70 19 -113 18
-179 -4 -82 -27 -120 -17 -133 35 -18 72 -130 185 -230 232 -83 39 -156 55
-229 48 -80 -7 -90 -10 -161 -41 l-60 -27 -19 28 c-104 147 -336 233 -493 183
-76 -24 -72 -45 -72 448 0 472 -2 496 -55 586 -37 63 -126 140 -209 180 -70
34 -202 66 -242 58z m115 -337 c36 -19 76 -66 89 -107 19 -59 22 -91 20 -213
-2 -66 -3 -583 -3 -1150 -1 -1118 -4 -1058 51 -1107 22 -20 99 -34 135 -25 41
11 86 60 96 105 6 24 9 263 8 559 -2 571 -2 580 59 650 26 30 38 36 92 42 67
8 100 -1 140 -36 41 -37 56 -89 55 -203 -5 -871 0 -1005 34 -1058 44 -68 147
-81 217 -28 20 15 40 38 44 49 4 12 8 238 8 502 0 457 1 482 20 520 35 72 79
101 161 108 62 5 114 -28 146 -93 23 -45 23 -47 23 -533 l0 -487 30 -28 c55
-51 102 -82 123 -82 38 0 86 30 117 73 l30 42 0 330 c1 316 2 332 22 370 11
22 36 53 54 69 30 27 38 29 107 28 69 -1 78 -4 104 -29 16 -16 37 -51 47 -78
17 -46 19 -83 17 -515 0 -256 -4 -469 -7 -475 -7 -10 -12 -41 -24 -150 -13
-112 -57 -245 -137 -413 -145 -302 -464 -586 -798 -707 -153 -55 -288 -78
-493 -82 -118 -3 -192 -1 -200 5 -7 6 -30 13 -52 16 -99 12 -132 19 -155 32
-14 7 -88 38 -165 69 -160 64 -229 103 -335 191 -170 140 -302 301 -397 484
-43 84 -91 203 -99 246 -3 16 -14 67 -26 114 -17 70 -21 117 -21 266 l0 180
46 113 c45 108 97 193 167 271 31 34 78 70 92 70 4 0 8 -95 10 -211 l3 -211
39 -34 c85 -73 141 -76 212 -11 34 31 35 36 42 122 4 50 6 356 6 680 -5 1684
-5 1635 18 1683 18 35 80 83 120 91 40 9 71 5 108 -14z"/>
</g>
</svg>
